<?xml version="1.0" encoding="utf-8"?>
<!-- Generator: Adobe Illustrator 24.0.2, SVG Export Plug-In . SVG Version: 6.00 Build 0)  -->
<svg version="1.1" id="Ebene_1" xmlns="http://www.w3.org/2000/svg" xmlns:xlink="http://www.w3.org/1999/xlink" x="0px" y="0px"
	 width="125px" height="125px" viewBox="0 0 125 125" style="enable-background:new 0 0 125 125;" xml:space="preserve">
<style type="text/css">
	.st0{opacity:0.75;}
	.st1{fill:#FFFFFF;}
</style>
<g class="st0">
	<path class="st1" d="M113.4,6.6H11.6c-2.8,0-5,2.2-5,5v101.8c0,2.8,2.2,5,5,5h101.8c2.8,0,5-2.2,5-5V11.6
		C118.4,8.8,116.2,6.6,113.4,6.6z M11.6,8.6h101.8c1.7,0,3,1.3,3,3v11.2H8.6V11.6C8.6,9.9,9.9,8.6,11.6,8.6z M113.4,116.4H11.6
		c-1.7,0-3-1.3-3-3V24.8h107.8v88.6C116.4,115.1,115.1,116.4,113.4,116.4z"/>
	<circle class="st1" cx="16.7" cy="16.3" r="2"/>
	<circle class="st1" cx="24.1" cy="16.3" r="2"/>
	<circle class="st1" cx="31.6" cy="16.3" r="2"/>
	<path class="st1" d="M14.6,30.8c-0.4-0.4-1-0.4-1.4,0s-0.4,1,0,1.4l4.3,4.3l-4.3,4.3c-0.4,0.4-0.4,1,0,1.4c0.2,0.2,0.5,0.3,0.7,0.3
		s0.5-0.1,0.7-0.3l5-5c0.4-0.4,0.4-1,0-1.4L14.6,30.8z"/>
	<path class="st1" d="M31.6,41.3h-8.2c-0.6,0-1,0.4-1,1s0.4,1,1,1h8.2c0.6,0,1-0.4,1-1S32.2,41.3,31.6,41.3z"/>
</g>
</svg>
