<?xml version="1.0" encoding="utf-8"?>
<!-- Generator: Adobe Illustrator 24.0.2, SVG Export Plug-In . SVG Version: 6.00 Build 0)  -->
<svg version="1.1" id="Ebene_1" xmlns="http://www.w3.org/2000/svg" xmlns:xlink="http://www.w3.org/1999/xlink" x="0px" y="0px"
	 width="125px" height="125px" viewBox="0 0 125 125" style="enable-background:new 0 0 125 125;" xml:space="preserve">
<style type="text/css">
	.st0{opacity:0.75;}
	.st1{opacity:0.5;fill:#FFFFFF;}
</style>
<g class="st0">
	<path class="st1" d="M80.9,66.9H38.5c-0.6,0-1,0.4-1,1s0.4,1,1,1h42.5c0.6,0,1-0.4,1-1S81.5,66.9,80.9,66.9z"/>
	<path class="st1" d="M38.5,75h33.2c0.6,0,1-0.4,1-1s-0.4-1-1-1H38.5c-0.6,0-1,0.4-1,1S37.9,75,38.5,75z"/>
	<path class="st1" d="M80.9,82.8H38.5c-0.6,0-1,0.4-1,1s0.4,1,1,1h42.5c0.6,0,1-0.4,1-1S81.5,82.8,80.9,82.8z"/>
	<path class="st1" d="M38.5,90.9h33.2c0.6,0,1-0.4,1-1s-0.4-1-1-1H38.5c-0.6,0-1,0.4-1,1S37.9,90.9,38.5,90.9z"/>
	<path class="st1" d="M80.9,98.9H38.5c-0.6,0-1,0.4-1,1s0.4,1,1,1h42.5c0.6,0,1-0.4,1-1S81.5,98.9,80.9,98.9z"/>
	<path class="st1" d="M71.6,105H38.5c-0.6,0-1,0.4-1,1s0.4,1,1,1h33.2c0.6,0,1-0.4,1-1S72.2,105,71.6,105z"/>
	<path class="st1" d="M104.5,5.2H26.2c-1.7,0-3,1.3-3,3v109.4c0,1.7,1.3,3,3,3h78.2c1.7,0,3-1.3,3-3V8.2
		C107.5,6.6,106.1,5.2,104.5,5.2z M105.5,117.7c0,0.6-0.4,1-1,1H26.2c-0.6,0-1-0.4-1-1V8.2c0-0.6,0.4-1,1-1h78.2c0.6,0,1,0.4,1,1
		V117.7z"/>
	<path class="st1" d="M94.6,80v-9.3c1.2-0.4,2-1.5,2-2.8c0-1.7-1.3-3-3-3s-3,1.3-3,3c0,1.3,0.8,2.4,2,2.8V80c-1.7,0.4-3,2-3,3.9
		c0,1.9,1.3,3.4,3,3.9v10.5c-0.6,0.3-1,1-1,1.7s0.4,1.4,1,1.7v4.4c0,0.6,0.4,1,1,1s1-0.4,1-1v-4.4c0.6-0.3,1-1,1-1.7s-0.4-1.4-1-1.7
		V87.7c1.7-0.4,3-2,3-3.9C97.6,82,96.4,80.4,94.6,80z"/>
	<circle class="st1" cx="65.1" cy="32.4" r="8"/>
	<path class="st1" d="M65.3,42.6c-14.8,0-17.2,8.2-17.6,11.8c-0.1,0.8,0.6,1.6,1.4,1.6h31.7c0.8,0,1.5-0.7,1.4-1.5
		C82.1,51,80.2,42.6,65.3,42.6z"/>
</g>
</svg>
