<?xml version="1.0" encoding="utf-8"?>
<!-- Generator: Adobe Illustrator 24.0.2, SVG Export Plug-In . SVG Version: 6.00 Build 0)  -->
<svg version="1.1" id="Ebene_1" xmlns="http://www.w3.org/2000/svg" xmlns:xlink="http://www.w3.org/1999/xlink" x="0px" y="0px"
	 width="24px" height="24px" viewBox="0 0 24 24" style="enable-background:new 0 0 24 24;" xml:space="preserve">
<style type="text/css">
	.st0{fill:#8FA6B2;}
</style>
<path class="st0" d="M22.2,4.5c-2.4-3.2-6.7-4.1-10.1-2.2C10.9,1.6,9.5,1.1,8,1.1c-4.3,0-7.8,3.5-7.8,7.8c0,2.8,1.4,5.2,3.8,6.6
	c0,0,0,0,0,0c0,4.3,3.5,7.8,7.8,7.8c4.2,0,7.5-3.3,7.8-7.4c0.4-0.2,0.7-0.4,1-0.6C24,12.9,24.8,8,22.2,4.5z M16.3,12
	c0.2,0.2,0.3,0.4,0.5,0.7c0,0.1,0.1,0.2,0.1,0.2c0.1,0.2,0.2,0.4,0.3,0.6c0,0.1,0.1,0.2,0.1,0.2c0.1,0.3,0.2,0.6,0.2,0.9
	c0,0,0,0,0,0c0,0,0,0,0,0c-0.3,0.1-0.6,0.1-0.9,0.2c-0.1,0-0.2,0-0.2,0c-0.2,0-0.5,0-0.7,0c-0.1,0-0.2,0-0.3,0
	c-0.3,0-0.5-0.1-0.8-0.1c0,0-0.1,0-0.1,0c-0.3-0.1-0.6-0.2-0.9-0.3c0,0-0.1,0-0.1,0c0,0,0-0.1,0.1-0.1c0.1-0.1,0.3-0.3,0.4-0.4
	c0.1-0.1,0.1-0.2,0.2-0.3c0.1-0.2,0.3-0.4,0.4-0.6c0-0.1,0.1-0.1,0.1-0.2c0.2-0.3,0.3-0.5,0.4-0.8c0-0.1,0.1-0.2,0.1-0.2
	c0.1-0.2,0.2-0.4,0.2-0.6c0,0,0,0,0-0.1c0,0,0,0,0.1,0.1C15.8,11.4,16,11.6,16.3,12C16.3,11.9,16.3,11.9,16.3,12z M9.3,14.5
	c-0.1,0-0.3,0.1-0.4,0.1c-0.2,0-0.4,0.1-0.6,0.1c-0.1,0-0.3,0-0.4,0c-0.2,0-0.4,0-0.5,0c-0.1,0-0.2,0-0.4,0c-0.3,0-0.6-0.1-0.8-0.2
	c0,0,0,0,0,0c0,0,0,0,0,0c0.1-0.3,0.2-0.6,0.3-0.9c0-0.1,0.1-0.1,0.1-0.2c0.1-0.2,0.2-0.4,0.3-0.6c0-0.1,0.1-0.2,0.2-0.2
	c0.2-0.2,0.3-0.4,0.5-0.6c0,0,0.1-0.1,0.1-0.1c0.2-0.2,0.5-0.4,0.7-0.6c0,0,0,0,0.1,0c0.1,0.2,0.1,0.5,0.2,0.7c0,0,0,0,0,0
	c0.1,0.3,0.3,0.6,0.4,1c0,0.1,0.1,0.2,0.1,0.2c0.2,0.3,0.3,0.6,0.6,0.9c0.1,0.2,0.3,0.4,0.4,0.5c0,0-0.1,0-0.1,0
	C9.8,14.4,9.6,14.5,9.3,14.5z M10.5,7.1c0-0.1,0.1-0.1,0.1-0.2c0.1-0.2,0.2-0.4,0.3-0.5c0-0.1,0.1-0.2,0.1-0.2
	c0.1-0.2,0.2-0.4,0.4-0.5c0,0,0.1-0.1,0.1-0.2c0.2-0.2,0.4-0.4,0.6-0.6c0,0,0,0,0,0c0,0,0,0.1,0.1,0.1c0.2,0.2,0.3,0.3,0.5,0.5
	c0,0.1,0.1,0.1,0.1,0.2c0.1,0.2,0.3,0.4,0.4,0.6c0,0,0,0.1,0.1,0.1c0.1,0.2,0.2,0.5,0.3,0.8c0,0.1,0,0.1,0.1,0.2
	c0.1,0.2,0.1,0.4,0.1,0.6c0,0,0,0.1,0,0.1c0,0-0.1,0-0.1,0c-0.1,0-0.2,0-0.3-0.1c-0.3-0.1-0.7-0.1-1-0.1c-0.1,0-0.3,0-0.4,0
	c0,0-0.1,0-0.1,0c-0.2,0-0.3,0-0.5,0c0,0-0.1,0-0.1,0c-0.2,0-0.5,0.1-0.7,0.1c0,0,0,0-0.1,0c0,0,0,0-0.1,0c0,0,0,0,0,0
	C10.4,7.7,10.4,7.4,10.5,7.1z M12.7,9.9c0.1,0,0.2,0,0.3,0.1c0.2,0,0.4,0.1,0.6,0.1c0,0,0.1,0,0.1,0c0,0,0,0,0,0.1
	c-0.1,0.2-0.1,0.5-0.2,0.7c0,0.1,0,0.1-0.1,0.2c-0.1,0.2-0.2,0.5-0.3,0.7c0,0,0,0,0,0c-0.1,0.2-0.3,0.5-0.5,0.7
	c0,0.1-0.1,0.1-0.1,0.2c-0.2,0.2-0.3,0.3-0.5,0.5c0,0,0,0-0.1,0.1c0,0,0,0,0,0c-0.2-0.2-0.4-0.4-0.6-0.6c-0.2-0.2-0.3-0.4-0.4-0.7
	c0-0.1-0.1-0.1-0.1-0.2c-0.1-0.2-0.2-0.3-0.2-0.5c0-0.1-0.1-0.2-0.1-0.3c-0.1-0.2-0.1-0.4-0.1-0.5c0-0.1,0-0.2-0.1-0.2
	c0,0,0-0.1,0-0.1c0,0,0.1,0,0.1,0c0.2-0.1,0.4-0.1,0.6-0.1c0.1,0,0.2,0,0.2,0c0.2,0,0.5,0,0.7,0c0,0,0.1,0,0.1,0
	C12.3,9.8,12.5,9.8,12.7,9.9z M2.2,8.9c0-3.2,2.6-5.8,5.8-5.8c0.8,0,1.7,0.2,2.4,0.5C10.3,3.8,10.1,4,10,4.1c0,0,0,0,0,0
	C9.8,4.4,9.6,4.6,9.5,4.8C9.4,4.9,9.4,5,9.3,5C9.2,5.2,9.1,5.4,9,5.6C9,5.7,9,5.7,8.9,5.8C8.8,6,8.7,6.3,8.6,6.5c0,0,0,0.1,0,0.1
	C8.5,6.9,8.4,7.1,8.4,7.4c0,0.1,0,0.2,0,0.2c0,0.2-0.1,0.4-0.1,0.6c0,0.1,0,0.2,0,0.3c0,0.1,0,0.1,0,0.2C8.1,8.7,8,8.8,8,8.8
	C7.9,8.9,7.8,8.9,7.7,9C7.5,9.1,7.3,9.3,7.1,9.4c0,0-0.1,0.1-0.1,0.1c-0.2,0.2-0.5,0.4-0.7,0.6c-0.1,0.1-0.1,0.1-0.2,0.2
	c-0.2,0.2-0.3,0.4-0.5,0.6C5.6,11,5.5,11,5.4,11.1c-0.2,0.2-0.3,0.5-0.4,0.7c0,0,0,0.1-0.1,0.1c-0.1,0.3-0.3,0.6-0.4,0.9
	c0,0.1-0.1,0.2-0.1,0.2c0,0.1-0.1,0.2-0.1,0.4C3,12.3,2.2,10.7,2.2,8.9z M11.8,21.4c-2.9,0-5.3-2.1-5.7-4.9c0,0,0.1,0,0.1,0
	c0.1,0,0.2,0,0.3,0.1c0.2,0,0.3,0.1,0.5,0.1c0.1,0,0.2,0,0.4,0c0.1,0,0.3,0,0.4,0c0.1,0,0.2,0,0.3,0c0,0,0.1,0,0.1,0
	c0.3,0,0.6,0,0.9-0.1c0.1,0,0.2,0,0.4-0.1c0.2,0,0.5-0.1,0.7-0.2c0.1,0,0.2-0.1,0.3-0.1c0.3-0.1,0.6-0.2,0.9-0.3
	c0.1,0,0.2-0.1,0.2-0.1c0.1,0,0.2-0.1,0.3-0.1c0.1,0.1,0.3,0.2,0.4,0.2c0.1,0,0.1,0.1,0.2,0.1c0.3,0.2,0.7,0.3,1,0.4
	c0.1,0,0.1,0,0.2,0.1c0.3,0.1,0.7,0.2,1.1,0.3c0.1,0,0.1,0,0.2,0c0.4,0.1,0.7,0.1,1.1,0.1c0,0,0,0,0.1,0c0,0,0,0,0,0
	c0.2,0,0.3,0,0.5,0c0.1,0,0.2,0,0.3,0c0.2,0,0.5-0.1,0.7-0.1C16.9,19.4,14.6,21.4,11.8,21.4z M19.4,13.8c0-0.1-0.1-0.2-0.1-0.4
	c0-0.1,0-0.2-0.1-0.3c-0.1-0.3-0.2-0.6-0.3-0.9c0,0,0-0.1-0.1-0.1c-0.1-0.2-0.2-0.5-0.4-0.7c-0.1-0.1-0.1-0.2-0.2-0.2
	c-0.1-0.2-0.3-0.4-0.4-0.6c-0.1-0.1-0.1-0.1-0.2-0.2c-0.2-0.2-0.4-0.5-0.6-0.7c0,0-0.1-0.1-0.2-0.1c-0.2-0.2-0.4-0.3-0.6-0.5
	c-0.1-0.1-0.2-0.1-0.2-0.2C16,9,15.9,9,15.8,8.9c0,0,0,0,0,0c0-0.3,0-0.6,0-0.8c0-0.1,0-0.2,0-0.3c0-0.2-0.1-0.4-0.1-0.6
	c0-0.1,0-0.2-0.1-0.3c0-0.2-0.1-0.4-0.2-0.6c0-0.1,0-0.2-0.1-0.2C15.3,6,15.2,5.7,15,5.5c0,0,0-0.1-0.1-0.1
	c-0.1-0.2-0.2-0.4-0.3-0.6c0-0.1-0.1-0.1-0.1-0.2c-0.1-0.2-0.2-0.3-0.3-0.5C14.1,4,14,4,14,3.9c0,0-0.1-0.1-0.1-0.1
	c2.4-0.9,5.2-0.2,6.8,2c0,0,0,0,0,0C22.5,8.3,22,11.9,19.4,13.8z"/>
</svg>
