<?xml version="1.0" encoding="utf-8"?>
<!-- Generator: Adobe Illustrator 24.0.2, SVG Export Plug-In . SVG Version: 6.00 Build 0)  -->
<svg version="1.1" id="Ebene_1" xmlns="http://www.w3.org/2000/svg" xmlns:xlink="http://www.w3.org/1999/xlink" x="0px" y="0px"
	 width="24px" height="24px" viewBox="0 0 24 24" style="enable-background:new 0 0 24 24;" xml:space="preserve">
<style type="text/css">
	.st0{fill:#8FA6B2;}
</style>
<path class="st0" d="M22.3,9.7h-1.8c-0.2-0.7-0.5-1.4-0.8-2l1.2-1.2c0.4-0.4,0.4-1,0-1.4L19,3.1c-0.4-0.4-1-0.4-1.4,0l-1.3,1.3
	c-0.6-0.3-1.3-0.6-2-0.8V1.8c0-0.6-0.4-1-1-1h-2.7c-0.6,0-1,0.4-1,1v1.8C9,3.8,8.3,4.1,7.7,4.4L6.4,3.1C6,2.7,5.4,2.7,5,3.1L3.1,5
	c-0.4,0.4-0.4,1,0,1.4l1.4,1.4C4.1,8.4,3.9,9,3.7,9.7H1.7c-0.6,0-1,0.4-1,1v2.7c0,0.6,0.4,1,1,1h1.9c0.2,0.7,0.4,1.3,0.8,1.9
	l-1.4,1.4c-0.4,0.4-0.4,1,0,1.4L5,20.9c0.4,0.4,1,0.4,1.4,0l1.3-1.3c0.6,0.3,1.2,0.6,1.9,0.8v1.9c0,0.6,0.4,1,1,1h2.7
	c0.6,0,1-0.4,1-1v-1.9c0.7-0.2,1.4-0.5,2-0.8l1.3,1.3c0.4,0.4,1,0.4,1.4,0l1.9-1.9c0.4-0.4,0.4-1,0-1.4l-1.2-1.2
	c0.4-0.6,0.6-1.3,0.8-2h1.8c0.6,0,1-0.4,1-1v-2.7C23.3,10.1,22.8,9.7,22.3,9.7z M12.1,18.7c-3.4,0-6.2-2.5-6.7-5.7H11l-1,1
	c-0.4,0.4-0.4,1,0,1.4c0.2,0.2,0.5,0.3,0.7,0.3s0.5-0.1,0.7-0.3l2.7-2.7c0.1-0.1,0.2-0.2,0.2-0.3c0.1-0.1,0.1-0.3,0.1-0.4
	c0,0,0,0,0,0s0,0,0,0c0-0.1,0-0.3-0.1-0.4c-0.1-0.1-0.1-0.2-0.2-0.3l-2.7-2.7c-0.4-0.4-1-0.4-1.4,0s-0.4,1,0,1.4l1,1H5.4
	c0.5-3.2,3.3-5.7,6.7-5.7c3.7,0,6.7,3,6.7,6.7C18.8,15.7,15.8,18.7,12.1,18.7z"/>
</svg>
