<?xml version="1.0" encoding="utf-8"?>
<!-- Generator: Adobe Illustrator 26.0.2, SVG Export Plug-In . SVG Version: 6.00 Build 0)  -->
<svg version="1.1" id="Ebene_1" xmlns="http://www.w3.org/2000/svg" xmlns:xlink="http://www.w3.org/1999/xlink" x="0px" y="0px"
	 viewBox="0 0 32 32" style="enable-background:new 0 0 32 32;" xml:space="preserve">
<style type="text/css">
	.st0{fill:#FFFFFF;}
	.st1{fill:#0A334B;stroke:#0A334B;stroke-miterlimit:10;}
</style>
<g>
	<path class="st0" d="M16.3,30.9c-0.2,0-0.3-0.1-0.5-0.1c0,0-0.1,0-0.1-0.1c-0.1-0.1-0.2-0.2-0.3-0.3c0,0,0-0.1-0.1-0.1L4.2,11.8
		C4,11.5,4,11,4.2,10.6L9,1.7C9.2,1.3,9.5,1.1,10,1c0.6,0,1,0.3,1.2,0.7L15,9.9h2.8l3.8-8.2C21.9,1.3,22.3,1,22.7,1
		c0.5,0,0.9,0.3,1.1,0.7l4.8,8.9c0.2,0.4,0.2,0.9,0,1.2L17.5,30.3c0,0,0,0.1-0.1,0.1c-0.1,0.1-0.2,0.2-0.4,0.3c0,0-0.1,0-0.1,0.1
		c-0.1,0.1-0.3,0.1-0.4,0.1c0,0-0.1,0-0.1,0C16.4,30.9,16.3,30.9,16.3,30.9z"/>
	<path class="st0" d="M22.8,1.8c0.2,0,0.4,0.1,0.5,0.3l4.8,8.9c0.1,0.2,0.1,0.3,0,0.5L16.8,29.9c0,0,0,0,0,0c0,0.1-0.1,0.1-0.2,0.2
		c0,0,0,0,0,0c-0.1,0-0.2,0.1-0.2,0.1c0,0,0,0,0,0c0,0,0,0,0,0s0,0,0,0c0,0,0,0,0,0c-0.1,0-0.2,0-0.2-0.1c0,0,0,0,0,0
		C16.1,30,16,30,16,29.9c0,0,0,0,0,0L4.8,11.4c-0.1-0.2-0.1-0.3,0-0.5L9.6,2c0.1-0.2,0.3-0.2,0.5-0.3c0.2,0,0.4,0.1,0.4,0.3l4,8.6
		h1.9h1.9l4-8.6C22.4,1.9,22.6,1.8,22.8,1.8 M22.8,0.3C22.8,0.3,22.7,0.3,22.8,0.3c-0.8,0-1.5,0.5-1.8,1.1l-3.6,7.8h-0.9h-0.9
		l-3.6-7.8c-0.3-0.7-1-1.1-1.8-1.1c0,0,0,0,0,0c0,0-0.1,0-0.1,0c-0.7,0.1-1.3,0.4-1.7,1l-4.8,8.9c-0.3,0.6-0.3,1.4,0.1,2l11.1,18.5
		c0,0.1,0.1,0.1,0.1,0.2c0.2,0.2,0.3,0.4,0.6,0.5c0,0,0.1,0,0.1,0.1c0.2,0.1,0.5,0.2,0.7,0.2c0.1,0,0.1,0,0.2,0c0.1,0,0.1,0,0.2,0
		c0.2,0,0.5-0.1,0.7-0.2c0,0,0.1,0,0.1-0.1c0.2-0.1,0.4-0.3,0.6-0.5c0-0.1,0.1-0.1,0.1-0.2l11.1-18.4c0.4-0.6,0.4-1.4,0.1-2
		l-4.8-8.9C24.2,0.7,23.6,0.3,22.8,0.3C22.8,0.3,22.8,0.3,22.8,0.3L22.8,0.3z"/>
</g>
<path class="st1" d="M28,10.9L23.2,2c-0.1-0.2-0.2-0.2-0.5-0.3c-0.2,0-0.4,0.1-0.4,0.3l-3.7,7.9c-0.2,0.5-0.7,0.7-1.2,0.7h-1h-1
	c-0.5,0-1-0.3-1.2-0.7l-3.7-7.9c-0.1-0.2-0.2-0.3-0.4-0.3C9.9,1.8,9.7,1.9,9.6,2l-4.8,8.9c-0.1,0.2-0.1,0.3,0,0.5L16,29.9
	c0,0,0,0,0,0c0,0.1,0.1,0.1,0.2,0.2c0,0,0,0,0,0c0.1,0,0.2,0.1,0.2,0.1c0,0,0,0,0,0c0,0,0,0,0,0s0,0,0,0c0,0,0,0,0,0
	c0.1,0,0.2,0,0.2-0.1c0,0,0,0,0,0c0.1,0,0.1-0.1,0.2-0.2c0,0,0,0,0,0L28,11.4C28.1,11.3,28.1,11.1,28,10.9z M15.8,27.2L9.1,11.7
	C9,11.3,8.9,11,9,10.6L9.6,6c0.1-0.8,1.2-0.9,1.5-0.2l2.6,5.6c0.1,0.2,0.3,0.3,0.5,0.3h2.2h2.2c0.2,0,0.4-0.1,0.5-0.3l3.1-6.6
	c0.3-0.6,1.1-0.6,1.4,0l3.1,5.8c0.2,0.4,0.2,0.9,0,1.2l-9.4,15.6C16.9,27.9,16.1,27.8,15.8,27.2z"/>
<path class="st1" d="M4.8,11.5L16,30c0,0,0,0,0,0c0,0.1,0.1,0.1,0.2,0.2c0,0,0,0,0,0c0.1,0,0.2,0.1,0.2,0.1c0,0,0,0,0,0c0,0,0,0,0,0
	s0,0,0,0c0,0,0,0,0,0c0.1,0,0.2,0,0.2-0.1c0,0,0,0,0,0c0.1,0,0.1-0.1,0.2-0.2c0,0,0,0,0,0L28,11.5c0.1-0.2,0.1-0.3,0-0.5l-4.8-8.9
	c-0.1-0.2-0.3-0.2-0.5-0.3c-0.2,0-0.4,0.1-0.4,0.3L18.6,10c-0.2,0.5-0.7,0.7-1.2,0.7h-1h-1c-0.5,0-1-0.3-1.2-0.7l-3.7-7.9
	c-0.1-0.2-0.2-0.3-0.4-0.3c-0.2,0-0.4,0.1-0.5,0.3L4.8,11C4.7,11.2,4.7,11.4,4.8,11.5z M15.6,27.4L6.2,11.8C6,11.5,6,11,6.2,10.6
	l3.1-5.8c0.3-0.6,1.1-0.5,1.4,0l3.1,6.6c0.1,0.2,0.3,0.3,0.5,0.3h2.2h2.2c0.2,0,0.4-0.1,0.5-0.3l2.6-5.6c0.3-0.7,1.4-0.6,1.5,0.2
	l0.7,4.6c0.1,0.4,0,0.7-0.1,1.1L17,27.3C16.8,27.9,16,28,15.6,27.4z"/>
</svg>
