<?xml version="1.0" encoding="utf-8"?>
<!-- Generator: Adobe Illustrator 24.0.2, SVG Export Plug-In . SVG Version: 6.00 Build 0)  -->
<svg version="1.1" id="Ebene_1" xmlns="http://www.w3.org/2000/svg" xmlns:xlink="http://www.w3.org/1999/xlink" x="0px" y="0px"
	 width="24px" height="24px" viewBox="0 0 24 24" style="enable-background:new 0 0 24 24;" xml:space="preserve">
<style type="text/css">
	.st0{fill:#C9D3DB;}
	.st1{fill:#EA5159;}
	.st2{fill:#D82237;}
</style>
<path id="Pfad_160_1_" class="st0" d="M8.3,22.4l-1.1-1c-4-3.6-6.6-6-6.6-8.9c0-2.3,1.8-4.2,4.2-4.3c0,0,0.1,0,0.1,0
	c1.3,0,2.6,0.6,3.5,1.6c0.9-1,2.1-1.6,3.5-1.6c2.3,0,4.2,1.8,4.3,4.2c0,0,0,0.1,0,0.1c0,2.9-2.6,5.3-6.6,8.9L8.3,22.4z"/>
<path id="Pfad_160" class="st1" d="M15.7,17.8l-1.1-1c-4-3.6-6.6-6-6.6-8.9c0-2.3,1.8-4.2,4.2-4.3c0,0,0.1,0,0.1,0
	c1.3,0,2.6,0.6,3.5,1.6c0.9-1,2.1-1.6,3.5-1.6c2.3,0,4.2,1.8,4.3,4.2c0,0,0,0.1,0,0.1c0,2.9-2.6,5.3-6.6,8.9L15.7,17.8z"/>
<path class="st2" d="M11.8,8.2c-1.3,0-2.6,0.6-3.5,1.6c0.9,2.1,3.1,4.1,6,6.7c1.1-1.4,1.7-2.7,1.7-4.1c0,0,0-0.1,0-0.1
	C16.1,10.1,14.2,8.2,11.8,8.2z"/>
</svg>
