<?xml version="1.0" encoding="utf-8"?>
<!-- Generator: Adobe Illustrator 24.0.2, SVG Export Plug-In . SVG Version: 6.00 Build 0)  -->
<svg version="1.1" id="parallax-bgr" xmlns="http://www.w3.org/2000/svg" xmlns:xlink="http://www.w3.org/1999/xlink" x="0px"
	 y="0px" viewBox="0 0 1920 1080" width="1920" height="1080" tyle="enable-background:new 0 0 1920 1080;" xml:space="preserve">
<style type="text/css">
	.st0{display:none;}
	.st1{display:inline;opacity:0.5;fill:#C9D3DB;enable-background:new    ;}
	.st2{display:inline;fill:#46B069;}
	.st3{display:inline;fill:#F1DA25;}
	.st4{display:inline;fill:#0CA54D;}
	.st5{display:inline;fill:#DEC503;}
	.st6{display:inline;fill:#C9D3DB;}
	.st7{display:inline;fill-rule:evenodd;clip-rule:evenodd;fill:#0CA54D;}
	.st8{display:inline;fill:#7F6BAE;}
	.st9{display:inline;fill-rule:evenodd;clip-rule:evenodd;fill:#604C9A;}
	.st10{opacity:0.5;clip-path:url(#mask_2_);fill:url(#bgr_1_);}
	.st11{opacity:0.6;clip-path:url(#mask_2_);}
	.st12{fill:url(#SVGID_1_);}
	.st13{fill:url(#SVGID_2_);}
	.st14{fill:url(#SVGID_3_);filter:url(#Adobe_OpacityMaskFilter);}
	.st15{mask:url(#c_2_);}
	.st16{fill:url(#SVGID_4_);}
	.st17{opacity:0.8;clip-path:url(#mask_2_);}
	.st18{fill:url(#SVGID_5_);}
	.st19{fill:url(#SVGID_6_);}
	.st20{fill:url(#SVGID_7_);filter:url(#Adobe_OpacityMaskFilter_1_);}
	.st21{mask:url(#c_1_);}
	.st22{fill:url(#SVGID_8_);}
	.st23{clip-path:url(#mask_2_);}
	.st24{fill:url(#SVGID_9_);}
	.st25{fill:url(#SVGID_10_);}
	.st26{fill:url(#SVGID_11_);filter:url(#Adobe_OpacityMaskFilter_2_);}
	.st27{mask:url(#c_3_);}
	.st28{fill:url(#SVGID_12_);}
	.st29{opacity:0.5;clip-path:url(#mask_2_);}
	.st30{fill:#C9D3DB;enable-background:new    ;}
	.st31{opacity:0.75;fill:#C9D3DB;enable-background:new    ;}
	.st32{opacity:0.25;fill:#C9D3DB;enable-background:new    ;}
	.st33{opacity:0.5;fill:#C9D3DB;enable-background:new    ;}
	.st34{fill:#C9D3DB;}
	.st35{opacity:0.75;fill:#C9D3DB;}
	.st36{opacity:0.25;fill:#C9D3DB;}
	.st37{opacity:0.5;clip-path:url(#mask_2_);fill:url(#dizziy_1_);}
</style>
<g id="products" class="st0">
	<circle class="st1" cx="918.3" cy="120.5" r="11.4"/>
	<circle class="st2" cx="927.5" cy="129.7" r="11.4"/>
	<circle class="st3" cx="927.5" cy="129.7" r="11.4"/>
	<path class="st4" d="M918.3,132c6.3,0,11.4-5.1,11.4-11.4c0-0.7-0.1-1.4-0.2-2.1c-0.7-0.1-1.4-0.2-2.1-0.2
		c-6.3,0-11.4,5.1-11.4,11.4c0,0.7,0.1,1.4,0.2,2.1C916.9,131.9,917.6,132,918.3,132z"/>
	<path class="st5" d="M918.3,132c6.3,0,11.4-5.1,11.4-11.4c0-0.7-0.1-1.4-0.2-2.1c-0.7-0.1-1.4-0.2-2.1-0.2
		c-6.3,0-11.4,5.1-11.4,11.4c0,0.7,0.1,1.4,0.2,2.1C916.9,131.9,917.6,132,918.3,132z"/>
	<path class="st6" d="M840.4,135.3c0.7,1.2,2.5,1.2,3.2,0l9.1-15.8c0.7-1.2-0.2-2.8-1.6-2.8H833c-1.4,0-2.3,1.6-1.6,2.8L840.4,135.3
		z"/>
	<path class="st2" d="M850.6,106.6c0.7-1.2,2.5-1.2,3.2,0l9.1,15.8c0.7,1.2-0.2,2.8-1.6,2.8h-18.2c-1.4,0-2.3-1.6-1.6-2.8
		L850.6,106.6z"/>
	<path class="st7" d="M849.6,125.1l3.2-5.5c0.7-1.2-0.2-2.8-1.6-2.8h-6.4l-3.2,5.5c-0.7,1.2,0.2,2.8,1.6,2.8H849.6z"/>
	<path class="st6" d="M966.3,112.5c0-1.5,1.2-2.7,2.7-2.7h17.4c1.5,0,2.7,1.2,2.7,2.7v17.4c0,1.5-1.2,2.7-2.7,2.7H969
		c-1.5,0-2.7-1.2-2.7-2.7V112.5z"/>
	<path class="st8" d="M975.4,120.3c0-1.5,1.2-2.7,2.7-2.7h17.4c1.5,0,2.7,1.2,2.7,2.7v17.4c0,1.5-1.2,2.7-2.7,2.7h-17.4
		c-1.5,0-2.7-1.2-2.7-2.7V120.3z"/>
	<path class="st9" d="M989.1,117.6v12.3c0,1.5-1.2,2.7-2.7,2.7h-11v-12.3c0-1.5,1.2-2.7,2.7-2.7H989.1z"/>
</g>
<g id="mask">
	<defs>
		<rect id="mask_1_" x="0" width="1920" height="1080"/>
	</defs>
	<clipPath id="mask_2_">
		<use xlink:href="#mask_1_"  style="overflow:visible;"/>
	</clipPath>
	<linearGradient id="bgr_1_" gradientUnits="userSpaceOnUse" x1="960" y1="1074.067" x2="960" y2="371.2074">
		<stop  offset="0.3554" style="stop-color:#EFF3F5"/>
		<stop  offset="1" style="stop-color:#EEF2F3;stop-opacity:0"/>
	</linearGradient>
	<rect id="bgr" x="0" class="st10" width="1920" height="1080"/>
	<g id="prism_2_" class="st11">
		<linearGradient id="SVGID_1_" gradientUnits="userSpaceOnUse" x1="560.8901" y1="666.35" x2="347.109" y2="676.8811">
			<stop  offset="0" style="stop-color:#8FA6B2;stop-opacity:0.2"/>
			<stop  offset="0.9928" style="stop-color:#E6EBEE;stop-opacity:0.2"/>
		</linearGradient>
		<path class="st12" d="M631.8,697.8l-294.6-11.9c-7.8-0.4-9.4-9.5-2-11.7l194.2-41c2.1-0.6,4.5-0.4,6.4,0.6l100.4,52.8
			C642.4,689.9,639.3,698.1,631.8,697.8z"/>

			<linearGradient id="SVGID_2_" gradientUnits="userSpaceOnUse" x1="359.0995" y1="845.3752" x2="359.0995" y2="624.1035" gradientTransform="matrix(-1 0 0 -1 989.5277 1324.5)">
			<stop  offset="0" style="stop-color:#EFF3F5"/>
			<stop  offset="1" style="stop-color:#CCD9DF"/>
		</linearGradient>
		<path class="st13" d="M637.5,490l90.8,138.5c0.1,0.2,0.3,0.4,0.4,0.6c3.5,6.1,1.4,13.9-4.7,17.4l-85.1,49c-5.3,3-11.7,3-17,0
			l-85.1-49c-0.2-0.1-0.4-0.3-0.6-0.4c-5.9-3.9-7.5-11.8-3.7-17.7L623.3,490C626.7,484.9,634.2,484.9,637.5,490L637.5,490z"/>
		<defs>
			<filter id="Adobe_OpacityMaskFilter" filterUnits="userSpaceOnUse" x="525.1" y="479.1" width="104.3" height="221.3">
				<feColorMatrix  type="matrix" values="1 0 0 0 0  0 1 0 0 0  0 0 1 0 0  0 0 0 1 0"/>
			</filter>
		</defs>
		<mask maskUnits="userSpaceOnUse" x="525.1" y="479.1" width="104.3" height="221.3" id="c_2_">

				<linearGradient id="SVGID_3_" gradientUnits="userSpaceOnUse" x1="359.0995" y1="845.3752" x2="359.0995" y2="624.1035" gradientTransform="matrix(-1 0 0 -1 989.5277 1324.5)">
				<stop  offset="0" style="stop-color:#F0F0F0"/>
				<stop  offset="1" style="stop-color:#DBDBDB"/>
			</linearGradient>
			<path class="st14" d="M637.5,490l90.8,138.5c0.1,0.2,0.3,0.4,0.4,0.6c3.5,6.1,1.4,13.9-4.7,17.4l-85.1,49c-5.3,3-11.7,3-17,0
				l-85.1-49c-0.2-0.1-0.4-0.3-0.6-0.4c-5.9-3.9-7.5-11.8-3.7-17.7L623.3,490C626.7,484.9,634.2,484.9,637.5,490L637.5,490z"/>
		</mask>
		<g class="st15">
			<linearGradient id="SVGID_4_" gradientUnits="userSpaceOnUse" x1="552.2115" y1="666.9131" x2="684.682" y2="534.4427">
				<stop  offset="0" style="stop-color:#7C909A"/>
				<stop  offset="5.848718e-02" style="stop-color:#7E929C"/>
				<stop  offset="0.4032" style="stop-color:#889DA9"/>
				<stop  offset="0.7253" style="stop-color:#8DA4B0"/>
				<stop  offset="1" style="stop-color:#8FA6B2"/>
			</linearGradient>
			<path class="st16" d="M629.4,700.4l-104.3-60.6l104.3-160.7L629.4,700.4z"/>
		</g>
	</g>
	<g id="prism_1_" class="st17">
		<linearGradient id="SVGID_5_" gradientUnits="userSpaceOnUse" x1="116.4817" y1="865.647" x2="-217.322" y2="882.0905">
			<stop  offset="0" style="stop-color:#8FA6B2;stop-opacity:0.2"/>
			<stop  offset="0.9928" style="stop-color:#E6EBEE;stop-opacity:0.2"/>
		</linearGradient>
		<path class="st18" d="M227.2,914.7l-460-18.5c-12.3-0.6-14.7-14.8-3.2-18.3l303.3-63.9c3.3-1,7-0.7,9.9,0.9l156.7,82.5
			C243.8,902.5,238.8,915.3,227.2,914.7z"/>

			<linearGradient id="SVGID_6_" gradientUnits="userSpaceOnUse" x1="764.4673" y1="751.1916" x2="764.4673" y2="405.6919" gradientTransform="matrix(-1 0 0 -1 989.5277 1324.5)">
			<stop  offset="0" style="stop-color:#EFF3F5"/>
			<stop  offset="1" style="stop-color:#CCD9DF"/>
		</linearGradient>
		<path class="st19" d="M236.2,590.3l141.8,216.3c0.2,0.3,0.4,0.7,0.6,1c5.5,9.5,2.2,21.7-7.3,27.2l-132.9,76.4
			c-8.2,4.7-18.3,4.7-26.5,0L78.9,834.7c-0.3-0.2-0.7-0.4-1-0.6c-9.2-6-11.8-18.4-5.7-27.6l141.8-216.3
			C219.2,582.3,230.9,582.3,236.2,590.3L236.2,590.3z"/>
		<defs>
			<filter id="Adobe_OpacityMaskFilter_1_" filterUnits="userSpaceOnUse" x="60.6" y="573.3" width="162.8" height="345.5">
				<feColorMatrix  type="matrix" values="1 0 0 0 0  0 1 0 0 0  0 0 1 0 0  0 0 0 1 0"/>
			</filter>
		</defs>
		<mask maskUnits="userSpaceOnUse" x="60.6" y="573.3" width="162.8" height="345.5" id="c_1_">

				<linearGradient id="SVGID_7_" gradientUnits="userSpaceOnUse" x1="764.4673" y1="751.1916" x2="764.4673" y2="405.6919" gradientTransform="matrix(-1 0 0 -1 989.5277 1324.5)">
				<stop  offset="0" style="stop-color:#F0F0F0"/>
				<stop  offset="1" style="stop-color:#DBDBDB"/>
			</linearGradient>
			<path class="st20" d="M236.2,590.3l141.8,216.3c0.2,0.3,0.4,0.7,0.6,1c5.5,9.5,2.2,21.7-7.3,27.2l-132.9,76.4
				c-8.2,4.7-18.3,4.7-26.5,0L78.9,834.7c-0.3-0.2-0.7-0.4-1-0.6c-9.2-6-11.8-18.4-5.7-27.6l141.8-216.3
				C219.2,582.3,230.9,582.3,236.2,590.3L236.2,590.3z"/>
		</mask>
		<g class="st21">
			<linearGradient id="SVGID_8_" gradientUnits="userSpaceOnUse" x1="102.9307" y1="866.5263" x2="309.7737" y2="659.6833">
				<stop  offset="0" style="stop-color:#7C909A"/>
				<stop  offset="5.848718e-02" style="stop-color:#7E929C"/>
				<stop  offset="0.4032" style="stop-color:#889DA9"/>
				<stop  offset="0.7253" style="stop-color:#8DA4B0"/>
				<stop  offset="1" style="stop-color:#8FA6B2"/>
			</linearGradient>
			<path class="st22" d="M223.4,918.8L60.6,824.2l162.8-250.9V918.8z"/>
		</g>
	</g>
	<g id="prism" class="st23">
		<linearGradient id="SVGID_9_" gradientUnits="userSpaceOnUse" x1="1525.3458" y1="946.643" x2="1059.53" y2="969.5896">
			<stop  offset="0" style="stop-color:#8FA6B2;stop-opacity:0.2"/>
			<stop  offset="0.9928" style="stop-color:#E6EBEE;stop-opacity:0.2"/>
		</linearGradient>
		<path class="st24" d="M1679.8,1015.1l-641.9-25.9c-17.1-0.9-20.6-20.7-4.5-25.6l423.2-89.2c4.6-1.4,9.7-0.9,13.8,1.2l218.7,115.1
			C1703,998,1696.1,1015.9,1679.8,1015.1z"/>

			<linearGradient id="SVGID_10_" gradientUnits="userSpaceOnUse" x1="-687.3373" y1="785.8091" x2="-687.3373" y2="303.6718" gradientTransform="matrix(-1 0 0 -1 989.5277 1324.5)">
			<stop  offset="0" style="stop-color:#EFF3F5"/>
			<stop  offset="1" style="stop-color:#CCD9DF"/>
		</linearGradient>
		<path class="st25" d="M1692.4,562.4l197.8,301.8c0.3,0.5,0.6,0.9,0.8,1.4c7.7,13.3,3.1,30.3-10.2,38l-185.4,106.7
			c-11.4,6.6-25.5,6.6-37,0l-185.4-106.7c-0.5-0.3-0.9-0.6-1.4-0.8c-12.8-8.4-16.4-25.7-8-38.5l197.8-301.8
			C1668.7,551.2,1685.1,551.2,1692.4,562.4L1692.4,562.4z"/>
		<defs>
			<filter id="Adobe_OpacityMaskFilter_2_" filterUnits="userSpaceOnUse" x="1447.4" y="538.7" width="227.2" height="482.1">
				<feColorMatrix  type="matrix" values="1 0 0 0 0  0 1 0 0 0  0 0 1 0 0  0 0 0 1 0"/>
			</filter>
		</defs>
		<mask maskUnits="userSpaceOnUse" x="1447.4" y="538.7" width="227.2" height="482.1" id="c_3_">

				<linearGradient id="SVGID_11_" gradientUnits="userSpaceOnUse" x1="-687.3373" y1="785.8091" x2="-687.3373" y2="303.6718" gradientTransform="matrix(-1 0 0 -1 989.5277 1324.5)">
				<stop  offset="0" style="stop-color:#F0F0F0"/>
				<stop  offset="1" style="stop-color:#DBDBDB"/>
			</linearGradient>
			<path class="st26" d="M1692.4,562.4l197.8,301.8c0.3,0.5,0.6,0.9,0.8,1.4c7.7,13.3,3.1,30.3-10.2,38l-185.4,106.7
				c-11.4,6.6-25.5,6.6-37,0l-185.4-106.7c-0.5-0.3-0.9-0.6-1.4-0.8c-12.8-8.4-16.4-25.7-8-38.5l197.8-301.8
				C1668.7,551.2,1685.1,551.2,1692.4,562.4L1692.4,562.4z"/>
		</mask>
		<g class="st27">
			<linearGradient id="SVGID_12_" gradientUnits="userSpaceOnUse" x1="1506.4358" y1="947.8701" x2="1795.0807" y2="659.2252">
				<stop  offset="0" style="stop-color:#7C909A"/>
				<stop  offset="5.848718e-02" style="stop-color:#7E929C"/>
				<stop  offset="0.4032" style="stop-color:#889DA9"/>
				<stop  offset="0.7253" style="stop-color:#8DA4B0"/>
				<stop  offset="1" style="stop-color:#8FA6B2"/>
			</linearGradient>
			<path class="st28" d="M1674.5,1020.8l-227.2-132l227.2-350.1V1020.8z"/>
		</g>
	</g>
	<g id="YceYCC_1_" class="st29">
		<circle class="st30" cx="330.4" cy="1045" r="24.2"/>
		<circle class="st30" cx="601.4" cy="991" r="24.2"/>
		<circle class="st30" cx="781.6" cy="1045" r="24.2"/>
		<circle class="st31" cx="1023" cy="779.8" r="24.2"/>
		<circle class="st31" cx="498.1" cy="700.4" r="24.2"/>
		<circle class="st30" cx="1293.8" cy="920.2" r="24.2"/>
		<circle class="st30" cx="1483.1" cy="1033.8" r="24.2"/>
		<circle class="st31" cx="1827.9" cy="784.6" r="24.2"/>
		<circle class="st31" cx="1531.4" cy="625.8" r="24.2"/>
		<circle class="st31" cx="861.5" cy="779.8" r="17.8"/>
		<circle class="st30" cx="1087.4" cy="1009.7" r="17.8"/>
		<circle class="st31" cx="1220.4" cy="797.5" r="17.8"/>
		<circle class="st31" cx="876.7" cy="554" r="17.8"/>
		<circle class="st32" cx="187.3" cy="368.5" r="17.8"/>
		<circle class="st32" cx="1087.4" cy="134.8" r="17.8"/>
		<circle class="st33" cx="1611" cy="423.3" r="17.8"/>
		<circle class="st31" cx="698.4" cy="808.7" r="17.8"/>
		<circle class="st30" cx="198.3" cy="1009.7" r="17.8"/>
		<circle class="st31" cx="103" cy="826.5" r="17.8"/>
		<circle class="st31" cx="1011.6" cy="680.7" r="11.4"/>
		<circle class="st33" cx="389.3" cy="452.5" r="11.4"/>
		<circle class="st32" cx="692.1" cy="212.7" r="11.4"/>
		<circle class="st32" cx="369.8" cy="141.1" r="11.4"/>
		<circle class="st32" cx="1470.4" cy="246.3" r="11.4"/>
		<circle class="st33" cx="1158.2" cy="464" r="11.4"/>
		<circle class="st30" cx="1815.1" cy="1027.4" r="11.4"/>
		<circle class="st31" cx="405.5" cy="864" r="11.4"/>
		<circle class="st31" cx="72" cy="584.3" r="11.4"/>
		<path class="st34" d="M900.2,899.4c0.8-2.5,3.6-3.9,6.1-3.1l29.2,9.5c2.5,0.8,3.9,3.6,3.1,6.1l-9.5,29.2c-0.8,2.5-3.6,3.9-6.1,3.1
			l-29.2-9.5c-2.5-0.8-3.9-3.6-3.1-6.1L900.2,899.4z"/>
		<path class="st35" d="M942.9,616.1c-0.3-2.1,1.2-3.9,3.2-4.2l23.5-3.2c2.1-0.3,3.9,1.2,4.2,3.2l3.2,23.5c0.3,2.1-1.2,3.9-3.2,4.2
			l-23.5,3.2c-2.1,0.3-3.9-1.2-4.2-3.2L942.9,616.1z"/>
		<path class="st35" d="M101.2,648.8c-1.2-1.7-0.7-4.1,1-5.2l19.7-13.2c1.7-1.2,4.1-0.7,5.2,1l13.2,19.7c1.2,1.7,0.7,4.1-1,5.2
			l-19.7,13.2c-1.7,1.2-4.1,0.7-5.2-1L101.2,648.8z"/>
		<path class="st35" d="M1318.8,516c0.4-2,2.4-3.4,4.4-3l23.3,4.5c2,0.4,3.4,2.4,3,4.4l-4.5,23.3c-0.4,2-2.4,3.4-4.4,3l-23.3-4.5
			c-2-0.4-3.4-2.4-3-4.4L1318.8,516z"/>
		<path class="st36" d="M859.7,349c-1.1-1.8-0.6-4.1,1.2-5.2l20.1-12.7c1.8-1.1,4.1-0.6,5.2,1.2l12.7,20.1c1.1,1.8,0.6,4.1-1.2,5.2
			l-20.1,12.7c-1.8,1.1-4.1,0.6-5.2-1.2L859.7,349z"/>
		<path class="st34" d="M344.5,930.4c-1.4-2.3-0.7-5.3,1.6-6.7l26.3-15.9c2.3-1.4,5.3-0.7,6.7,1.6l15.9,26.3
			c1.4,2.3,0.7,5.3-1.6,6.7l-26.3,15.9c-2.3,1.4-5.3,0.7-6.7-1.6L344.5,930.4z"/>
		<path class="st35" d="M380.8,578.2c0.1-2.7,2.3-4.8,4.9-4.8l30.7,0.6c2.7,0.1,4.8,2.3,4.8,4.9l-0.6,30.7c-0.1,2.7-2.3,4.8-4.9,4.8
			l-30.7-0.6c-2.7-0.1-4.8-2.3-4.8-4.9L380.8,578.2z"/>
		<path class="st35" d="M1516.4,769.8c-2.2-1.5-2.7-4.5-1.2-6.7l17.5-25.2c1.5-2.2,4.5-2.7,6.7-1.2l25.2,17.5
			c2.2,1.5,2.7,4.5,1.2,6.7l-17.5,25.2c-1.5,2.2-4.5,2.7-6.7,1.2L1516.4,769.8z"/>
		<path class="st34" d="M784.1,512.2c-0.5-1.4,0.3-3,1.7-3.5l16.5-5.5c1.4-0.5,3,0.3,3.5,1.7l5.5,16.5c0.5,1.4-0.3,3-1.7,3.5
			l-16.5,5.5c-1.4,0.5-3-0.3-3.5-1.7L784.1,512.2z"/>
		<path class="st36" d="M292,309.7c-1.1-1.1-1-2.8,0-3.9l12.4-12.2c1.1-1.1,2.8-1,3.9,0l12.2,12.4c1.1,1.1,1,2.8,0,3.9L308,322.1
			c-1.1,1.1-2.8,1-3.9,0L292,309.7z"/>
		<path class="st35" d="M517.3,785.3c-0.4-1.5,0.5-3,2-3.3l16.9-4.2c1.5-0.4,3,0.5,3.3,2l4.2,16.9c0.4,1.5-0.5,3-2,3.3l-16.9,4.2
			c-1.5,0.4-3-0.5-3.3-2L517.3,785.3z"/>
		<path class="st34" d="M1718.9,456.7c0.3-1.5,1.7-2.5,3.2-2.2l17.1,3.2c1.5,0.3,2.5,1.7,2.2,3.2l-3.2,17.1
			c-0.3,1.5-1.7,2.5-3.2,2.2l-17.1-3.2c-1.5-0.3-2.5-1.7-2.2-3.2L1718.9,456.7z"/>
		<path class="st36" d="M1575.2,214.8c-0.2-1.5,0.9-2.9,2.4-3.1l17.2-2.2c1.5-0.2,2.9,0.9,3.1,2.4l2.2,17.2c0.2,1.5-0.9,2.9-2.4,3.1
			l-17.2,2.2c-1.5,0.2-2.9-0.9-3.1-2.4L1575.2,214.8z"/>
		<path class="st36" d="M571.2,116.7c0.7-1.3,2.4-1.9,3.7-1.2l15.4,8.1c1.3,0.7,1.9,2.4,1.2,3.7l-8.1,15.4c-0.7,1.3-2.4,1.9-3.7,1.2
			l-15.4-8.1c-1.3-0.7-1.9-2.4-1.2-3.7L571.2,116.7z"/>
		<path class="st35" d="M722.3,890.8c-0.9,2.6,1.3,5.1,4,4.6l33.6-6.5c2.7-0.5,3.8-3.7,2-5.8l-22.4-25.8c-1.8-2-5.1-1.4-6,1.2
			L722.3,890.8z"/>
		<path class="st34" d="M119.4,967.8c-2.5,1-3,4.3-0.9,6l26.8,21.3c2.1,1.7,5.3,0.4,5.7-2.2l5.1-33.8c0.4-2.7-2.2-4.8-4.8-3.8
			L119.4,967.8z"/>
		<path class="st35" d="M295,676.3c-2.6-0.6-5,1.8-4.2,4.4l9.7,32.8c0.8,2.6,4,3.4,5.9,1.4l23.6-24.8c1.9-2,0.9-5.2-1.7-5.8
			L295,676.3z"/>
		<path class="st34" d="M1129.8,872.9c-1.2-2.4-4.6-2.6-6.1-0.4l-19,28.5c-1.5,2.2,0,5.3,2.7,5.5l34.1,2.2c2.7,0.2,4.6-2.6,3.4-5.1
			L1129.8,872.9z"/>
		<path class="st35" d="M1435.7,799.4c-2.2-1.6-5.3-0.3-5.6,2.4l-4.2,34c-0.3,2.7,2.4,4.7,4.9,3.7l31.5-13.3c2.5-1.1,2.9-4.4,0.7-6
			L1435.7,799.4z"/>
		<path class="st35" d="M1813.8,566.8c-1.1-2.5-4.5-2.7-6.1-0.5l-19.6,28c-1.6,2.2-0.1,5.3,2.6,5.5l34.1,3c2.7,0.2,4.6-2.5,3.5-5
			L1813.8,566.8z"/>
		<path class="st34" d="M1040.8,505.7c0.3-1.8-1.6-3.2-3.3-2.5l-21.6,8.7c-1.7,0.7-2,3-0.6,4.1l18.3,14.3c1.4,1.1,3.6,0.3,3.8-1.5
			L1040.8,505.7z"/>
		<path class="st34" d="M582.2,468.3c-1.2-1.4-3.4-1.1-4.1,0.6l-8.4,21.7c-0.7,1.7,0.8,3.5,2.6,3.2l23-3.5c1.8-0.3,2.7-2.4,1.5-3.9
			L582.2,468.3z"/>
		<path class="st34" d="M205.7,477.9c-1.8,0-3,2-2,3.6l11.8,20c0.9,1.6,3.2,1.6,4.1,0l11.4-20.3c0.9-1.6-0.3-3.6-2.1-3.6
			L205.7,477.9z"/>
		<path class="st35" d="M730.5,708.5c-1.5-1.1-3.6-0.1-3.8,1.7l-2.2,23.2c-0.2,1.8,1.7,3.2,3.4,2.4l21.2-9.7
			c1.7-0.8,1.9-3.1,0.4-4.1L730.5,708.5z"/>
		<path class="st35" d="M1386.3,636.8c-0.6-1.7-2.9-2.1-4.1-0.7l-14.9,17.9c-1.2,1.4-0.4,3.6,1.4,3.9l22.9,4
			c1.8,0.3,3.3-1.5,2.7-3.2L1386.3,636.8z"/>
		<path class="st36" d="M522.3,290.9c-0.1,1.4,1.4,2.4,2.7,1.8l16.2-8.2c1.3-0.6,1.4-2.4,0.2-3.2l-15.2-10c-1.2-0.8-2.8,0-2.9,1.5
			L522.3,290.9z"/>
		<path class="st36" d="M157.2,251.1c-1.3,0.5-1.6,2.3-0.5,3.2l14.3,11.3c1.1,0.9,2.8,0.2,3-1.2l2.6-18c0.2-1.4-1.2-2.5-2.5-2
			L157.2,251.1z"/>
		<path class="st34" d="M1313.4,368.1c-1.4-0.5-2.7,0.7-2.4,2.1l3.6,17.8c0.3,1.4,2,2,3.1,1l13.6-12c1.1-1,0.7-2.7-0.6-3.2
			L1313.4,368.1z"/>
		<path class="st36" d="M970.6,212.9c-0.4-1.4-2.2-1.8-3.2-0.7l-12.4,13.3c-1,1.1-0.5,2.8,1,3.1l17.7,4.1c1.4,0.3,2.6-1,2.2-2.4
			L970.6,212.9z"/>
		<path class="st36" d="M1806.8,277.4c0.2-1.4-1.2-2.5-2.5-2l-17,6.6c-1.3,0.5-1.6,2.3-0.5,3.2l14.2,11.4c1.1,0.9,2.8,0.3,3-1.2
			L1806.8,277.4z"/>
		<path class="st35" d="M1178.9,659.2c1.4-0.3,1.9-2.1,0.9-3.1l-12.6-13.1c-1-1-2.7-0.6-3.1,0.8l-5,17.5c-0.4,1.4,0.9,2.7,2.2,2.3
			L1178.9,659.2z"/>
	</g>
	<linearGradient id="dizziy_1_" gradientUnits="userSpaceOnUse" x1="960" y1="1074.067" x2="960" y2="371.2074">
		<stop  offset="0.3554" style="stop-color:#EFF3F5"/>
		<stop  offset="1" style="stop-color:#EEF2F3;stop-opacity:0"/>
	</linearGradient>
	<rect id="dizziy" x="0" class="st37" width="1920" height="1080"/>
</g>
</svg>
