<?xml version="1.0" encoding="utf-8"?>
<!-- Generator: Adobe Illustrator 24.0.2, SVG Export Plug-In . SVG Version: 6.00 Build 0)  -->
<svg version="1.1" id="Ebene_1" xmlns="http://www.w3.org/2000/svg" xmlns:xlink="http://www.w3.org/1999/xlink" x="0px" y="0px"
	 width="125px" height="125px" viewBox="0 0 125 125" style="enable-background:new 0 0 125 125;" xml:space="preserve">
<style type="text/css">
	.st0{opacity:0.75;fill:#FFFFFF;}
</style>
<path class="st0" d="M105.3,97.7c0.5-0.6,1-1.3,1.5-1.9c0-0.1,0.1-0.1,0.1-0.2c0.5-0.6,0.9-1.3,1.4-2c0-0.1,0.1-0.1,0.2-0.2
	c0.4-0.6,0.9-1.3,1.3-2c0.1-0.1,0.1-0.2,0.2-0.3c0.4-0.7,0.8-1.3,1.1-2c0.1-0.1,0.1-0.2,0.2-0.3c0.4-0.7,0.8-1.5,1.1-2.2
	c0.2-0.5,0.5-1,0.7-1.5c0.1-0.3,0.3-0.6,0.4-0.8c0.2-0.6,0.5-1.1,0.7-1.7c0.1-0.2,0.2-0.4,0.3-0.7c0.2-0.6,0.4-1.1,0.6-1.7
	c0.1-0.2,0.2-0.5,0.2-0.7c0.2-0.6,0.4-1.1,0.5-1.7c0.1-0.2,0.1-0.5,0.2-0.7c0.2-0.6,0.3-1.1,0.4-1.7c0.1-0.3,0.1-0.6,0.2-0.8
	c0.1-0.5,0.2-1.1,0.3-1.6c0.1-0.3,0.1-0.7,0.2-1c0.1-0.5,0.2-1,0.2-1.5c0.1-0.4,0.1-0.8,0.2-1.2c0.1-0.5,0.1-0.9,0.2-1.4
	c0-0.5,0.1-1,0.1-1.5c0-0.4,0.1-0.7,0.1-1.1c0-0.9,0.1-1.8,0.1-2.7c0-0.9,0-1.8-0.1-2.7c0-0.4,0-0.7-0.1-1.1c0-0.5-0.1-1-0.1-1.5
	c0-0.5-0.1-0.9-0.2-1.4c0-0.4-0.1-0.8-0.2-1.2c-0.1-0.5-0.2-1-0.2-1.5c-0.1-0.3-0.1-0.7-0.2-1c-0.1-0.5-0.2-1.1-0.3-1.6
	c-0.1-0.3-0.1-0.6-0.2-0.8c-0.1-0.6-0.3-1.1-0.4-1.7c-0.1-0.2-0.1-0.5-0.2-0.7c-0.2-0.6-0.3-1.2-0.5-1.7c-0.1-0.2-0.1-0.4-0.2-0.7
	c-0.2-0.6-0.4-1.2-0.6-1.8c-0.1-0.2-0.2-0.4-0.2-0.6c-0.2-0.6-0.5-1.2-0.7-1.7c-0.1-0.2-0.2-0.5-0.3-0.7c-0.3-0.7-0.6-1.3-0.9-1.9
	c-0.3-0.6-0.6-1.3-1-1.9c-0.1-0.1-0.2-0.3-0.2-0.4c-0.4-0.6-0.7-1.3-1.1-1.9c-0.1-0.1-0.1-0.2-0.2-0.3c-0.4-0.7-0.8-1.3-1.2-1.9
	c-0.1-0.1-0.1-0.2-0.2-0.2c-0.4-0.7-0.9-1.3-1.4-1.9c0-0.1-0.1-0.1-0.1-0.2c-0.5-0.6-1-1.3-1.5-1.9c0-0.1-0.1-0.1-0.1-0.2
	c-0.3-0.4-0.6-0.8-1-1.1l-0.6-0.7l0,0C93.4,14.1,78.8,7,62.5,7c-16.3,0-30.9,7-41.1,18.2l0,0L20.8,26c-0.3,0.4-0.6,0.7-0.9,1.1
	c-0.1,0.1-0.1,0.1-0.2,0.2c-0.5,0.6-1,1.2-1.5,1.9c-0.1,0.1-0.1,0.1-0.2,0.2c-0.5,0.6-0.9,1.3-1.3,1.9c-0.1,0.1-0.1,0.2-0.2,0.3
	c-0.4,0.6-0.8,1.3-1.2,1.9c-0.1,0.1-0.2,0.2-0.2,0.4c-0.4,0.6-0.7,1.2-1.1,1.8c-0.1,0.2-0.2,0.3-0.3,0.5c-0.3,0.6-0.6,1.2-0.9,1.8
	c-0.4,0.7-0.7,1.5-1.1,2.3c-0.1,0.2-0.2,0.4-0.2,0.5c-0.3,0.6-0.5,1.2-0.7,1.8c-0.1,0.2-0.2,0.4-0.2,0.6c-0.2,0.6-0.4,1.2-0.6,1.8
	c-0.1,0.2-0.1,0.4-0.2,0.6c-0.2,0.6-0.4,1.2-0.5,1.8C9.1,47.5,9.1,47.7,9,48c-0.2,0.6-0.3,1.1-0.4,1.7c-0.1,0.3-0.1,0.5-0.2,0.8
	C8.2,51,8.1,51.6,8,52.1c-0.1,0.3-0.1,0.6-0.2,1c-0.1,0.5-0.2,1-0.2,1.5c-0.1,0.4-0.1,0.8-0.2,1.2c-0.1,0.5-0.1,0.9-0.2,1.4
	c0,0.5-0.1,1-0.1,1.5c0,0.4-0.1,0.7-0.1,1.1c0,0.9-0.1,1.8-0.1,2.7c0,0.9,0,1.8,0.1,2.7c0,0.4,0,0.7,0.1,1.1c0,0.5,0.1,1,0.1,1.5
	c0,0.5,0.1,0.9,0.2,1.4c0,0.4,0.1,0.8,0.2,1.2c0.1,0.5,0.2,1,0.2,1.5c0.1,0.3,0.1,0.7,0.2,1c0.1,0.5,0.2,1.1,0.3,1.6
	c0.1,0.3,0.1,0.6,0.2,0.9C8.7,75.9,8.8,76.5,9,77c0.1,0.3,0.1,0.5,0.2,0.8c0.2,0.6,0.3,1.2,0.5,1.7c0.1,0.2,0.2,0.5,0.2,0.7
	c0.2,0.6,0.4,1.2,0.6,1.7c0.1,0.2,0.2,0.5,0.3,0.7c0.2,0.6,0.4,1.1,0.7,1.7c0.1,0.3,0.3,0.6,0.4,0.9c0.2,0.5,0.4,1,0.7,1.4
	c0.4,0.8,0.8,1.5,1.2,2.3c0.1,0.1,0.1,0.2,0.2,0.3c0.4,0.7,0.8,1.3,1.2,2c0.1,0.1,0.1,0.2,0.2,0.3c0.4,0.7,0.8,1.3,1.3,2
	c0,0.1,0.1,0.1,0.1,0.2c0.5,0.7,0.9,1.3,1.4,2c0,0.1,0.1,0.1,0.1,0.2c0.5,0.7,1,1.3,1.5,1.9c0,0,0.1,0.1,0.1,0.1
	c0.3,0.4,0.7,0.8,1,1.2l0.6,0.7l0,0c10.2,11.2,24.8,18.2,41,18.2c16.3,0,30.9-7,41-18.2l0,0l0.6-0.7c0.3-0.4,0.7-0.8,1-1.2
	C105.2,97.8,105.3,97.8,105.3,97.7z M115.8,66.1c0,0.5-0.1,1-0.1,1.5c0,0.4-0.1,0.8-0.1,1.3c0,0.4-0.1,0.8-0.2,1.2
	c-0.1,0.5-0.1,0.9-0.2,1.4c-0.1,0.3-0.1,0.7-0.2,1c-0.1,0.5-0.2,1-0.3,1.5c-0.1,0.3-0.1,0.5-0.2,0.8c-0.1,0.5-0.3,1.1-0.4,1.6
	c-0.1,0.2-0.1,0.4-0.2,0.6c-0.6,2-1.2,3.9-2,5.8c0,0.1-0.1,0.2-0.1,0.3c-0.2,0.4-0.4,0.8-0.6,1.3c-0.2,0.3-0.3,0.7-0.5,1
	c-0.2,0.3-0.3,0.7-0.5,1c-0.2,0.4-0.4,0.9-0.7,1.3c-0.1,0.3-0.3,0.5-0.4,0.8c-0.3,0.5-0.5,1-0.8,1.4c-0.1,0.2-0.3,0.4-0.4,0.6
	c-0.3,0.5-0.7,1.1-1,1.6c-0.1,0.2-0.2,0.3-0.3,0.5c-0.4,0.6-0.8,1.2-1.2,1.7c-0.1,0.1-0.1,0.2-0.2,0.3c-0.5,0.6-1,1.3-1.5,1.9
	c0,0,0,0.1-0.1,0.1c-0.1,0.2-0.3,0.3-0.4,0.5c-6.3-4.9-14.2-8.6-22.9-10.7c1.1-6.9,1.8-14.6,1.8-22.8h33.7c0,0.5,0,1,0,1.6
	C115.9,65.4,115.8,65.7,115.8,66.1z M62.5,116c-6.6,0-12.5-11.5-15.6-28.1c5-1.1,10.2-1.7,15.6-1.7s10.6,0.6,15.6,1.7
	C75,104.4,69.1,116,62.5,116z M62.5,84.2c-5.4,0-10.8,0.6-15.9,1.7c-1.1-6.8-1.8-14.4-1.8-22.4h35.5c-0.1,8-0.7,15.5-1.8,22.4
	C73.3,84.8,67.9,84.2,62.5,84.2z M21.3,96.5C21.3,96.5,21.2,96.5,21.3,96.5c-0.6-0.7-1.1-1.3-1.5-1.9c-0.1-0.1-0.1-0.2-0.2-0.3
	c-0.4-0.6-0.8-1.1-1.2-1.7c-0.1-0.1-0.2-0.3-0.3-0.5c-0.3-0.5-0.7-1.1-1-1.6c-0.1-0.2-0.3-0.4-0.4-0.6c-0.3-0.5-0.6-1-0.8-1.4
	c-0.1-0.3-0.3-0.5-0.4-0.8c-0.2-0.4-0.4-0.8-0.7-1.3c-0.2-0.3-0.3-0.7-0.5-1c-0.2-0.3-0.3-0.7-0.5-1.1c-0.2-0.4-0.4-0.8-0.6-1.3
	c0-0.1-0.1-0.2-0.1-0.4c-0.8-1.9-1.4-3.8-2-5.8c-0.1-0.2-0.1-0.4-0.2-0.6c-0.1-0.5-0.3-1.1-0.4-1.6c-0.1-0.3-0.1-0.5-0.2-0.8
	c-0.1-0.5-0.2-1-0.3-1.5c-0.1-0.3-0.1-0.7-0.2-1c-0.1-0.5-0.2-0.9-0.2-1.4c-0.1-0.4-0.1-0.8-0.2-1.2c0-0.4-0.1-0.8-0.1-1.3
	c0-0.5-0.1-1-0.1-1.5c0-0.3-0.1-0.7-0.1-1c0-0.5,0-1,0-1.6h33.7c0,8.2,0.7,15.9,1.8,22.8C35.9,88.4,28,92.1,21.7,97
	C21.6,96.8,21.4,96.7,21.3,96.5z M9.2,58.9c0-0.5,0.1-1,0.1-1.5c0-0.4,0.1-0.8,0.1-1.3c0-0.4,0.1-0.8,0.1-1.2
	c0.1-0.5,0.1-0.9,0.2-1.4c0.1-0.3,0.1-0.6,0.2-1c0.1-0.5,0.2-1,0.3-1.5c0.1-0.3,0.1-0.5,0.2-0.8c0.1-0.6,0.3-1.1,0.4-1.7
	c0-0.2,0.1-0.3,0.1-0.5c0.6-2,1.2-4,2-5.9c0-0.1,0.1-0.2,0.1-0.3c0.2-0.4,0.4-0.9,0.6-1.3c0.1-0.3,0.3-0.7,0.4-1
	c0.2-0.4,0.3-0.7,0.5-1.1c0.2-0.4,0.4-0.8,0.6-1.2c0.2-0.3,0.3-0.6,0.5-0.9c0.3-0.5,0.5-0.9,0.8-1.4c0.1-0.2,0.3-0.4,0.4-0.7
	c0.3-0.5,0.7-1,1-1.6c0.1-0.2,0.2-0.3,0.3-0.5c0.4-0.6,0.8-1.2,1.2-1.7c0.1-0.1,0.1-0.2,0.2-0.3c0.5-0.6,1-1.3,1.5-1.9c0,0,0,0,0,0
	c0.1-0.2,0.3-0.3,0.4-0.4C28,33,35.9,36.6,44.6,38.8c-1.1,6.9-1.8,14.6-1.8,22.7H9.1c0-0.5,0-1,0-1.6C9.1,59.6,9.2,59.3,9.2,58.9z
	 M62.5,9C69.1,9,75,20.6,78.1,37.2c-5,1.1-10.2,1.7-15.6,1.7c-5.3,0-10.6-0.6-15.6-1.7C50,20.6,55.9,9,62.5,9z M62.5,40.9
	c5.4,0,10.8-0.6,15.9-1.7c1.1,6.8,1.8,14.4,1.8,22.3H44.7c0.1-7.9,0.7-15.5,1.8-22.3C51.7,40.3,57.1,40.9,62.5,40.9z M103.7,28.5
	C103.7,28.5,103.8,28.6,103.7,28.5c0.6,0.7,1.1,1.3,1.5,1.9c0.1,0.1,0.1,0.2,0.2,0.3c0.4,0.6,0.8,1.1,1.2,1.7
	c0.1,0.2,0.2,0.3,0.3,0.5c0.3,0.5,0.7,1,1,1.5c0.1,0.2,0.3,0.5,0.4,0.7c0.3,0.5,0.5,0.9,0.8,1.4c0.2,0.3,0.3,0.6,0.5,0.9
	c0.2,0.4,0.4,0.8,0.6,1.2c0.2,0.4,0.4,0.7,0.5,1.1c0.2,0.3,0.3,0.7,0.4,1c0.2,0.4,0.4,0.9,0.6,1.3c0,0.1,0.1,0.2,0.1,0.3
	c0.8,1.9,1.5,3.9,2,5.9c0,0.2,0.1,0.3,0.1,0.5c0.1,0.6,0.3,1.1,0.4,1.7c0.1,0.3,0.1,0.5,0.2,0.8c0.1,0.5,0.2,1,0.3,1.5
	c0.1,0.3,0.1,0.6,0.2,1c0.1,0.5,0.2,0.9,0.2,1.4c0.1,0.4,0.1,0.8,0.1,1.2c0.1,0.4,0.1,0.8,0.1,1.3c0,0.5,0.1,1,0.1,1.5
	c0,0.3,0.1,0.7,0.1,1c0,0.5,0,1,0,1.6H82.3c0-8.2-0.7-15.9-1.8-22.7c8.7-2.1,16.6-5.8,22.9-10.7C103.5,28.2,103.6,28.3,103.7,28.5z
	 M102,26.5c-6.1,4.7-13.6,8.2-21.9,10.3c-2.4-13.2-6.6-23.1-11.8-27.4C81.6,10.8,93.4,17.1,102,26.5z M56.7,9.4
	c-5.2,4.3-9.4,14.2-11.8,27.4c-8.3-2.1-15.9-5.6-21.9-10.3C31.6,17.1,43.4,10.8,56.7,9.4z M23,98.5c6.1-4.7,13.6-8.2,21.9-10.2
	c2.4,13.1,6.6,23.1,11.8,27.3C43.4,114.2,31.6,107.9,23,98.5z M68.3,115.6c5.2-4.3,9.4-14.2,11.8-27.3c8.3,2,15.8,5.5,21.9,10.2
	C93.4,107.9,81.6,114.2,68.3,115.6z"/>
</svg>
